<svg height="50" viewBox="0 0 60 60" width="50" xmlns="http://www.w3.org/2000/svg"><g id="029---Koi-Carp" fill="none"><path id="Shape" d="m59 17c0 3.61-5 8.89-7.11 11-.7160268.7483522-1.7410655 1.1184022-2.77 1-1.24-.2-1.47-1-1.12-2.14 1-3 1-5-2-8.94-3.52-4.67-4.66-9-1-16.35.1687597-.36406071.5387958-.59198592.9398557-.57890788s.7554609.2646262.9001443.63890788c.7 1.71 1.89 5.64 4.16 7.37 3.89 2.91 8 3.42 8 8z" fill="#ff9801"/><path id="Shape" d="m51 9c-2.27-1.7-3.46-5.63-4.16-7.34-.1381781-.37733826-.4888032-.63531259-.8901658-.65494445-.4013626-.01963187-.7754903.2028926-.9498342.56494445-.24.47-.45.93-.65 1.39.74 1.93 1.85 4.66 3.65 6.04 3.89 2.94 8 3.45 8 8.06 0 3.61-5 8.89-7.11 11-.219492.2200936-.4685477.4085683-.74.56.63.65 2.45.73 3.74-.56 2.11-2.14 7.11-7.42 7.11-11.06 0-4.57-4.11-5.09-8-8z" fill="#f57c00"/><path id="Shape" d="m24 24v6c0 2.36-1.73 4.36-4 5.61-1.54.37-3.14.82-4.81 1.38h-.19c-.06-.5-.82-6.2 1-9 1.36-2.11 4.71-4.16 6.62-4.93.3109265-.1277784.6652499-.0907864.9430785.0984592s.4419841.5054203.4369215.8415408z" fill="#ff9801"/><path id="Shape" d="m22.62 23.08c-.5614218.231536-1.1090005.4953087-1.64.79v6.14c0 2.36-1.73 4.36-4 5.61-.69.17-1.4.35-2.11.55 0 .44.08.74.09.84.64 0 .81-.38 5-1.39 2.25-1.25 4-3.25 4-5.61v-6.01c-.0065596-.3222647-.1680561-.6216085-.4337864-.8040502s-.603109-.2256093-.9062136-.1159498z" fill="#f57c00"/><path id="Shape" d="m38.3 58.49c-1.7382974.3915344-3.5189383.5628791-5.3.51-5 0-8 0-10-5 2.7162702-.582243 5.3892515-1.3507251 8-2.3 1.9107907.0518331 3.7172715.8828143 5 2.3 1.030446.9203747 1.9836434 1.9237404 2.85 3 .1664262.2631268.2008025.5887567.0929885.8808347-.1078141.2920779-.3455162.5172762-.6429885.6091653z" fill="#ff9801"/><path id="Shape" d="m38.85 57c-.8663566-1.0762596-1.819554-2.0796253-2.85-3-1.2827285-1.4171857-3.0892093-2.2481669-5-2.3l-1 .36c1.1334542.4122555 2.1590246 1.0754577 3 1.94 1.030446.9203747 1.9836434 1.9237404 2.85 3 .1584375.2617632.1883157.5816562.0810933.8682322-.1072223.286576-.3397434.5082924-.6310933.6017678-2 .61-7 .52-2.3.52 1.7814824.0495999 3.5621284-.125105 5.3-.52.2913499-.0934754.523871-.3151918.6310933-.6017678.1072224-.286576.0773442-.606469-.0810933-.8682322z" fill="#f57c00"/><path id="Shape" d="m43.56 27.35-1.56 5.31c-1.5262614.8629674-3.2467366 1.3240548-5 1.34l.77-6.25c.1267071-1.0059579.9861249-1.7579484 2-1.75h2.86c.3265731.0022015.6314956.1637305.8167664.432672.1852708.2689416.2275442.6114066.1132336.917328z" fill="#ff9801"/><path id="Shape" d="m42.61 26c-3.45 0-2.79 0-2.94 0 .3143984.0168379.6025077.1807605.7776083.4424276.1751005.2616671.2167424.5905189.1123917.8875724l-1.56 5.33c-.0801733.0491572-.1637139.0925983-.25.13-.5461407.2803622-1.114793.5145132-1.7.7l-.05.51c1.7525534-.0211253 3.4717629-.4818734 5-1.34l1.54-5.31c.1143106-.3059214.0720372-.6483864-.1132336-.917328-.1852708-.2689415-.4901933-.4304705-.8167664-.432672z" fill="#f57c00"/><path id="Shape" d="m55 38c.0870001.5242288-.2512052 1.0249484-.77 1.14l-8.34 1.86c1.0399114-1.4518215 1.9215906-3.0106838 2.63-4.65.1-.1-.28.17 4.22-2.59.2846744-.1699757.6350886-.1878005.9355416-.0475891s.5118752.4202265.5644584.7475891z" fill="#ff9801"/><path id="Shape" d="m54.24 34.46c-.0525832-.3273626-.2640054-.6073777-.5644584-.7475891s-.6508672-.1223866-.9355416.0475891l-1.46.89.72 3.35c.0870001.5242288-.2512052 1.0249484-.77 1.14l-4.77 1.06c-.18.26-.35.53-.54.79l8.31-1.85c.5187948-.1150516.8570001-.6157712.77-1.14z" fill="#f57c00"/><path id="Shape" d="m59 2 .0000507 15c-.0000507-4.18-3.3600507-5-7.0000507-7.36 0-2.76 3.33-6.8 5.4-8.45.3044593-.22837441.7121606-.26412501 1.0517193-.09222339.3395588.17190162.552101.5216505.5482807.90222339z" fill="#ff5722"/><path id="Shape" d="m51.06 28.61-.06.39c-.6784209 2.4897956-1.503188 4.9373839-2.47 7.33-.0933333.22-.1933333.44-.3.66-4 0-6.41.84-7.2 2-2 3-1 4.89-1 7.89-1.5725685 1.1490655-3.2460864 2.1531762-5 3v-.09c0-4-3-3.86-5-2.86-2.68 1.34-3.83 2.54-6 2-4-1-5 2.71-5 5.71 0 .1-4 .55-4.35.59l.07-.07c.5756849-1.0925935.2673087-2.4418405-.725858-3.1758662-.9931666-.7340257-2.3735035-.6328663-3.249046.2381097-.87554238.8709761-.98391834 2.2507651-.255096 3.2477565-12.67.27-10.7-6.11-5.52-11.47.25119759 1.1899074 1.32222372 2.0264294 2.53754289 1.9819408s2.22231635-.9570798 2.38584143-2.1621688-.56386741-2.353029-1.72338432-2.719772c1.49562402-1.1866314 3.1032043-2.2248603 4.8-3.1.73 1.83 4.07 3 6 2 4-2 6.09.3 10-1 3-1 4-3 3-4.94 5.2-.18 6.63.35 9.74-1.28.0862861-.0374017.1698267-.0808428.25-.13 2.385753-1.3291728 4.411027-3.2205728 5.9-5.51-.1972168.4120229-.1637156.897322.0882461 1.2783373.2519617.3810152.6854092.6018336 1.1417539.5816627.6716583.0789264 1.3510217-.0576466 1.94-.39z" fill="#ffe0b2"/><path id="Shape" d="m48.22 37c-1.852716 3.956805-4.681389 7.3773658-8.22 9.94 0-3-1-4.89 1-7.89.81-1.2 3.22-2.05 7.22-2.05z" fill="#ff5722"/><path id="Shape" d="m35.05 50c-5.0599659 2.3957757-10.4550623 4.0075607-16 4.78 0-3.69 1.38-6.63 5-5.73 2.17.54 3.32-.66 6-2 2-1 5-1.14 5 2.86z" fill="#ff5722"/><path id="Shape" d="m14.72 55.24-.07.07c-1.53.15-2.92.23-4.16.24-.72882234-.9969914-.62044638-2.3767804.255096-3.2477565.8755425-.870976 2.2558794-.9721354 3.249046-.2381097.9931667.7340257 1.3015429 2.0832727.725858 3.1758662z" fill="#37474f"/><path id="Shape" d="m10 43.51c.1353097 1.3807119-.87428814 2.6096902-2.255 2.745-1.38071186.1353097-2.60969022-.8742881-2.745-2.255 1.00077741-1.0369716 2.0698329-2.0058032 3.2-2.9 1.06822236.3150322 1.8011143 1.2962931 1.8 2.41z" fill="#37474f"/><path id="Shape" d="m29 39c-3.91 1.3-6-1-10 1-1.94 1-5.28-.21-6-2 2.2427471-1.0285676 4.5895613-1.813074 7-2.34 3.9355688-.9306216 7.957133-1.4500737 12-1.55 1 1.94 0 3.89-3 4.89z" fill="#ff5722"/><path id="Shape" d="m48 27.09v.06" fill="#ffe0b2"/><g id="Layer_5" fill="#000"><path id="Shape" d="m56.78.44c-1.67 1.33-4.54 4.56-5.47 7.47-1.8-1.61-2.82-4.91-3.55-6.66-.2959217-.73148072-.99427-1.22059608-1.7828415-1.24868218-.7885714-.02808611-1.5199472.41010757-1.8671585 1.11868218-4 8-2.44 12.71 1.09 17.4 3 4 2.63 5.44 1.81 8.18-.9057672 1.364203-2.0114535 2.5845031-3.28 3.62l.78-2.68c.2064672-.6112762.1053599-1.2846123-.2715309-1.8082921-.3768908-.5236799-.983268-.8333748-1.6284691-.8317079h-2.86c-1.5124376-.0134966-2.7983938 1.1009988-3 2.6l-.63 5.4c-4.1833202-.0751631-8.3653642.2092159-12.5.85.8733338-1.0952816 1.3586781-2.4493219 1.38-3.85v-6c.0019829-.6660778-.3277629-1.2894322-.879494-1.662603-.551731-.3731708-1.2530338-.4471802-1.870506-.197397-1.91.77-5.52 2.89-7.09 5.31s-1.46 6.65-1.23 9c-5.93 2.43-15.06 10.35-13.81 15.74 1.48 6.4 15.87 4.25 22.29 3 2.27 4.81 5.8 4.81 10.59 4.81 1.8762058.0502832 3.7512029-.1378886 5.58-.56.6047093-.1773323 1.0904731-.6292979 1.3108794-1.2196717.2204062-.5903738.1496733-1.2500982-.1908794-1.7803283-.6402538-.8591562-1.3637625-1.6530061-2.16-2.37-.9492502-1.0847045-2.0920292-1.9833289-3.37-2.65 4.8640361-2.0634124 9.1041966-5.3624641 12.3-9.57l7.94-1.77c1.0533392-.2073 1.7551333-1.2092324 1.59-2.27l-.72-3.51c-.1079712-.6529229-.5319341-1.2101604-1.1324019-1.4883771-.6004678-.2782168-1.2996828-.2413851-1.8675981.0983771l-1.68 1c.3-1.05 1.4-4.65 1.4-4.7.216949-.1530181.4209678-.3235912.61-.51 3.39-3.36 7.39-8.12 7.39-11.7v-15c-.0093516-.75759899-.4459983-1.44487086-1.1278493-1.77520858-.6818509-.33033771-1.4918269-.24701972-2.0921507.21520858zm1.22 1.56v10.34c-1.5698256-1.2079998-3.2429509-2.2754538-5-3.19.44-2.27 3.12-5.64 5-7.15zm-18.25 25h2.85l-1.44 5c-.944184.4695477-1.9566935.7868007-3 .94l.64-5.06c.058341-.4864453.4605194-.8589895.95-.88zm-11.07 11.06c-3.67 1.22-5.76-1.13-10.13 1-1.3784798.4496146-2.8914396.1545875-4-.78.34-.14.66-.27 1-.38 5.1068981-1.7148405 10.4359447-2.6782459 15.82-2.86.27 1.57-1.22 2.53-2.69 3.02zm-11.84-9.51c1.23-1.91 4.4-3.84 6.16-4.54v6c0 1.73-1.25 3.46-3.35 4.66-1.22.3-2.48.66-3.77 1.07-.21-2.63-.05-5.63.96-7.19zm-7.84 14.96c-.00482078.6810611-.46788342 1.2733923-1.12764823 1.4424423-.6597648.1690501-1.35061345-.1276169-1.68235177-.7224423.68-.67 1.41-1.33 2.17-1.95.40139703.2808836.64033198.7400867.64 1.23zm2.32 9.65c.4046841-.601442 1.1835038-.824354 1.8451225-.5281069.6616187.2962472 1.0140175 1.0256751.8348775 1.7281069-1 .09-2 .15-2.89.17-.1560952-.4637191-.0778268-.9743274.21-1.37zm8.74.39c.0079458-1.2250323.4878965-2.399837 1.34-3.28.6977574-.4635049 1.5755864-.5639345 2.36-.27 2.61.65 4-.74 6.69-2.08.823123-.5176805 1.8419117-.617707 2.75-.27.5125117.4318996.8057979 1.0697972.8 1.74-4.4371115 2.010817-9.1265586 3.4102502-13.94 4.16zm15.23 1.16c.9540154.8899457 1.8586969 1.8313486 2.71 2.82-1.640932.3621016-3.3203337.5199654-5 .47-4.57 0-6.88 0-8.58-3.3 2.2794361-.5261788 4.523801-1.1941445 6.72-2 1.5958432.0904714 3.0896227.8139647 4.15 2.01zm5.61-9.71c-.21-2.21-.36-3.47 1-5.43.41-.61 1.9-1.31 4.73-1.51-1.4658452 2.6467848-3.4085082 4.9996785-5.73 6.94zm12.36-10.34.74 3.51-6 1.33c.48-.84.9-1.66 1.27-2.46zm-5.67 1.34c-3.77.09-6.4.95-7.4 2.45-2.09 3.13-1.3 5.2-1.21 8-1.0011693.7101578-2.0429413 1.3612653-3.12 1.95-.66-3.12-3.55-3.71-6.31-2.33s-3.55 2.39-5.31 1.93c-3.91-1-6 1.76-6.21 5.83-.9.13-.51.09-2 .27.0206702-1.5032029-.9209066-2.8516977-2.3392144-3.3501445-1.4183077-.4984469-2.9964961-.0354925-3.9207856 1.1501445-.60036454.7372031-.87797695 1.6854117-.77 2.63-4.11-.13-6.58-1.07-7-2.79s.82-3.82 2.73-6c1.30891486 1.4552703 3.54972968 1.5739149 5.005.265 1.4552703-1.3089149 1.5739149-3.5497297.265-5.005.8680096-.6343386 1.7692944-1.2218428 2.7-1.76 1.2023563 1.3309484 2.9164335 2.084269 4.71 2.07 2.76 0 2.21-1.59 6.94-1.06 1.6687284.286369 3.3813917.1767586 5-.32 2.37-.79 4.31-2.44 4-4.93h3.74c4.31 0 8.08-2.78 10.47-5.67.5895915.4873756 1.3483603.7211195 2.11.65-.5524538 2.0526079-1.2474754 4.0641608-2.08 6.02zm3.59-8.73c-.4949755.5148968-1.1995251.7731086-1.91.7-.29 0-.4-.12-.41-.14s-.08-.16.09-.67c1.1-3.29 1.06-5.61-2.15-9.87s-4.45-8.18-.89-15.29c.11.26.23.57.36.92 2.2 5.82 3.32 6.57 7.5 9 2.86 1.62 4.23 2.52 4.23 5.08 0 2.23-2.49 6-6.82 10.29z"/><path id="Shape" d="m35.49 40.15c-4.65 2.79-8.9.94-17.9 4.94-.4274182.1947244-.6617191.6606653-.5631423 1.1198892.0985769.4592238.5034623.7879572.9731423.7901108.94 0 2.69-1.81 11-2.94 2.6361985-.1708988 5.2014237-.9257786 7.51-2.21.3609297-.1487736.6022843-.4939823.6180897-.8840516s-.1968285-.7536733-.5445384-.9311606c-.3477098-.1774873-.7669152-.1364035-1.0735513.1052122z"/></g></g></svg>